<mxfile host="app.diagrams.net" modified="2024-04-19T18:11:59.719Z" agent="Mozilla/5.0 (Macintosh; Intel Mac OS X 10_15_7) AppleWebKit/537.36 (KHTML, like Gecko) Chrome/124.0.0.0 Safari/537.36" etag="BIwxSjSs7lkZ8i0-PQw7" version="24.2.5" type="github">
  <diagram name="Page-1" id="Wl3OVvI_i9Uu6-yHzgTa">
    <mxGraphModel dx="954" dy="549" grid="1" gridSize="10" guides="1" tooltips="1" connect="1" arrows="1" fold="1" page="1" pageScale="1" pageWidth="850" pageHeight="1100" math="0" shadow="0">
      <root>
        <mxCell id="0" />
        <mxCell id="1" parent="0" />
        <mxCell id="r-KjHQPf-Q4y7F3wXpSw-1" value="" style="strokeWidth=2;html=1;shape=mxgraph.flowchart.database;whiteSpace=wrap;" vertex="1" parent="1">
          <mxGeometry x="740" y="260" width="40" height="40" as="geometry" />
        </mxCell>
        <mxCell id="r-KjHQPf-Q4y7F3wXpSw-10" style="edgeStyle=orthogonalEdgeStyle;rounded=0;orthogonalLoop=1;jettySize=auto;html=1;" edge="1" parent="1" target="r-KjHQPf-Q4y7F3wXpSw-4">
          <mxGeometry relative="1" as="geometry">
            <mxPoint x="70" y="240" as="sourcePoint" />
            <Array as="points">
              <mxPoint x="70" y="241" />
              <mxPoint x="166" y="241" />
              <mxPoint x="166" y="240" />
            </Array>
          </mxGeometry>
        </mxCell>
        <mxCell id="r-KjHQPf-Q4y7F3wXpSw-16" value="(4) login [POST]" style="edgeLabel;html=1;align=center;verticalAlign=middle;resizable=0;points=[];" vertex="1" connectable="0" parent="r-KjHQPf-Q4y7F3wXpSw-10">
          <mxGeometry x="-0.5937" y="-2" relative="1" as="geometry">
            <mxPoint x="42" y="-3" as="offset" />
          </mxGeometry>
        </mxCell>
        <mxCell id="r-KjHQPf-Q4y7F3wXpSw-2" value="Guest User" style="shape=umlActor;verticalLabelPosition=bottom;verticalAlign=top;html=1;outlineConnect=0;" vertex="1" parent="1">
          <mxGeometry x="20" y="170" width="30" height="60" as="geometry" />
        </mxCell>
        <mxCell id="r-KjHQPf-Q4y7F3wXpSw-4" value="&lt;div style=&quot;&quot;&gt;&lt;pre style=&quot;font-family: &amp;quot;JetBrains Mono&amp;quot;, monospace; font-size: 9.8pt;&quot;&gt;&lt;b style=&quot;background-color: rgb(255, 255, 255);&quot;&gt;UserController&lt;/b&gt;&lt;/pre&gt;&lt;/div&gt;" style="whiteSpace=wrap;html=1;shape=mxgraph.basic.document" vertex="1" parent="1">
          <mxGeometry x="260" y="150" width="150" height="100" as="geometry" />
        </mxCell>
        <mxCell id="r-KjHQPf-Q4y7F3wXpSw-5" style="edgeStyle=orthogonalEdgeStyle;rounded=0;orthogonalLoop=1;jettySize=auto;html=1;entryX=0;entryY=0.5;entryDx=0;entryDy=0;entryPerimeter=0;" edge="1" parent="1" source="r-KjHQPf-Q4y7F3wXpSw-2" target="r-KjHQPf-Q4y7F3wXpSw-4">
          <mxGeometry relative="1" as="geometry" />
        </mxCell>
        <mxCell id="r-KjHQPf-Q4y7F3wXpSw-14" value="(1) login_form [GET]" style="edgeLabel;html=1;align=center;verticalAlign=middle;resizable=0;points=[];" vertex="1" connectable="0" parent="r-KjHQPf-Q4y7F3wXpSw-5">
          <mxGeometry x="-0.2286" y="1" relative="1" as="geometry">
            <mxPoint as="offset" />
          </mxGeometry>
        </mxCell>
        <mxCell id="r-KjHQPf-Q4y7F3wXpSw-6" style="edgeStyle=orthogonalEdgeStyle;rounded=0;orthogonalLoop=1;jettySize=auto;html=1;entryX=0.5;entryY=0;entryDx=0;entryDy=0;entryPerimeter=0;" edge="1" parent="1" source="r-KjHQPf-Q4y7F3wXpSw-4" target="r-KjHQPf-Q4y7F3wXpSw-1">
          <mxGeometry relative="1" as="geometry" />
        </mxCell>
        <mxCell id="r-KjHQPf-Q4y7F3wXpSw-17" value="(5) Check username and password" style="edgeLabel;html=1;align=center;verticalAlign=middle;resizable=0;points=[];" vertex="1" connectable="0" parent="r-KjHQPf-Q4y7F3wXpSw-6">
          <mxGeometry x="0.0244" y="2" relative="1" as="geometry">
            <mxPoint as="offset" />
          </mxGeometry>
        </mxCell>
        <mxCell id="r-KjHQPf-Q4y7F3wXpSw-9" style="edgeStyle=orthogonalEdgeStyle;rounded=0;orthogonalLoop=1;jettySize=auto;html=1;" edge="1" parent="1" source="r-KjHQPf-Q4y7F3wXpSw-7" target="r-KjHQPf-Q4y7F3wXpSw-2">
          <mxGeometry relative="1" as="geometry" />
        </mxCell>
        <mxCell id="r-KjHQPf-Q4y7F3wXpSw-15" value="(3) return login view" style="edgeLabel;html=1;align=center;verticalAlign=middle;resizable=0;points=[];" vertex="1" connectable="0" parent="r-KjHQPf-Q4y7F3wXpSw-9">
          <mxGeometry x="-0.1304" y="1" relative="1" as="geometry">
            <mxPoint as="offset" />
          </mxGeometry>
        </mxCell>
        <mxCell id="r-KjHQPf-Q4y7F3wXpSw-7" value="&lt;div style=&quot;&quot;&gt;&lt;pre style=&quot;font-family: &amp;quot;JetBrains Mono&amp;quot;, monospace; font-size: 9.8pt;&quot;&gt;&lt;span style=&quot;background-color: rgb(255, 255, 255);&quot;&gt;&lt;b&gt;login page&lt;/b&gt;&lt;/span&gt;&lt;/pre&gt;&lt;/div&gt;" style="whiteSpace=wrap;html=1;shape=mxgraph.basic.document" vertex="1" parent="1">
          <mxGeometry x="260" y="300" width="150" height="100" as="geometry" />
        </mxCell>
        <mxCell id="r-KjHQPf-Q4y7F3wXpSw-8" value="(2) loginForm" style="edgeStyle=orthogonalEdgeStyle;rounded=0;orthogonalLoop=1;jettySize=auto;html=1;entryX=0.5;entryY=0;entryDx=0;entryDy=0;entryPerimeter=0;" edge="1" parent="1" source="r-KjHQPf-Q4y7F3wXpSw-4" target="r-KjHQPf-Q4y7F3wXpSw-7">
          <mxGeometry relative="1" as="geometry" />
        </mxCell>
        <mxCell id="r-KjHQPf-Q4y7F3wXpSw-11" style="edgeStyle=orthogonalEdgeStyle;rounded=0;orthogonalLoop=1;jettySize=auto;html=1;entryX=0.993;entryY=0.67;entryDx=0;entryDy=0;entryPerimeter=0;" edge="1" parent="1" source="r-KjHQPf-Q4y7F3wXpSw-1" target="r-KjHQPf-Q4y7F3wXpSw-4">
          <mxGeometry relative="1" as="geometry" />
        </mxCell>
        <mxCell id="r-KjHQPf-Q4y7F3wXpSw-18" value="(6) Login success" style="edgeLabel;html=1;align=center;verticalAlign=middle;resizable=0;points=[];" vertex="1" connectable="0" parent="r-KjHQPf-Q4y7F3wXpSw-11">
          <mxGeometry x="-0.2285" y="-2" relative="1" as="geometry">
            <mxPoint x="22" y="2" as="offset" />
          </mxGeometry>
        </mxCell>
        <mxCell id="r-KjHQPf-Q4y7F3wXpSw-12" style="edgeStyle=orthogonalEdgeStyle;rounded=0;orthogonalLoop=1;jettySize=auto;html=1;entryX=0.5;entryY=0;entryDx=0;entryDy=0;entryPerimeter=0;" edge="1" parent="1" source="r-KjHQPf-Q4y7F3wXpSw-4" target="r-KjHQPf-Q4y7F3wXpSw-2">
          <mxGeometry relative="1" as="geometry">
            <Array as="points">
              <mxPoint x="335" y="80" />
              <mxPoint x="35" y="80" />
            </Array>
          </mxGeometry>
        </mxCell>
        <mxCell id="r-KjHQPf-Q4y7F3wXpSw-19" value="(7) Redirect Home page with user session" style="edgeLabel;html=1;align=center;verticalAlign=middle;resizable=0;points=[];" vertex="1" connectable="0" parent="r-KjHQPf-Q4y7F3wXpSw-12">
          <mxGeometry x="-0.1261" y="-3" relative="1" as="geometry">
            <mxPoint as="offset" />
          </mxGeometry>
        </mxCell>
        <mxCell id="r-KjHQPf-Q4y7F3wXpSw-13" value="Login Process" style="text;align=center;fontStyle=1;verticalAlign=middle;spacingLeft=3;spacingRight=3;strokeColor=none;rotatable=0;points=[[0,0.5],[1,0.5]];portConstraint=eastwest;html=1;" vertex="1" parent="1">
          <mxGeometry x="330" y="20" width="120" height="26" as="geometry" />
        </mxCell>
      </root>
    </mxGraphModel>
  </diagram>
</mxfile>
